<?xml version="1.0" encoding="UTF-8" standalone="no"?>
<!-- Created with Inkscape (http://www.inkscape.org/) -->

<svg
   width="32"
   height="32"
   viewBox="0 0 8.4666665 8.4666666"
   version="1.1"
   id="svg1"
   inkscape:version="1.3.2 (091e20ef0f, 2023-11-25, custom)"
   sodipodi:docname="logo-light.svg"
   xml:space="preserve"
   inkscape:export-filename="favicon@0.5x.png"
   inkscape:export-xdpi="144"
   inkscape:export-ydpi="144"
   xmlns:inkscape="http://www.inkscape.org/namespaces/inkscape"
   xmlns:sodipodi="http://sodipodi.sourceforge.net/DTD/sodipodi-0.dtd"
   xmlns="http://www.w3.org/2000/svg"
   xmlns:svg="http://www.w3.org/2000/svg"><sodipodi:namedview
     id="namedview1"
     pagecolor="#000000"
     bordercolor="#000000"
     borderopacity="0.25"
     inkscape:showpageshadow="2"
     inkscape:pageopacity="0.0"
     inkscape:pagecheckerboard="0"
     inkscape:deskcolor="#d1d1d1"
     inkscape:document-units="mm"
     inkscape:zoom="11.313709"
     inkscape:cx="17.89864"
     inkscape:cy="9.5459415"
     inkscape:window-width="1536"
     inkscape:window-height="896"
     inkscape:window-x="0"
     inkscape:window-y="0"
     inkscape:window-maximized="1"
     inkscape:current-layer="g8" /><defs
     id="defs1"><filter
       style="color-interpolation-filters:sRGB;"
       inkscape:label="Blur"
       id="filter13"
       x="-0.032236613"
       y="-0.023939862"
       width="1.0644732"
       height="1.0478797"><feGaussianBlur
         stdDeviation="1 1"
         result="blur"
         id="feGaussianBlur13" /></filter><filter
       style="color-interpolation-filters:sRGB;"
       inkscape:label="Blur"
       id="filter35"
       x="-0.047882798"
       y="-0.40506152"
       width="1.0953141"
       height="1.809865"><feGaussianBlur
         stdDeviation="0.2 0.2"
         result="blur"
         id="feGaussianBlur35" /></filter><filter
       style="color-interpolation-filters:sRGB;"
       inkscape:label="Blur"
       id="filter36"
       x="-0.10992179"
       y="-0.76525449"
       width="1.2191215"
       height="2.5312894"><feGaussianBlur
         stdDeviation="0.2 0.2"
         result="blur"
         id="feGaussianBlur36" /></filter><filter
       style="color-interpolation-filters:sRGB;"
       inkscape:label="Blur"
       id="filter37"
       x="-0.12030911"
       y="-0.89903003"
       width="1.2412724"
       height="2.7971441"><feGaussianBlur
         stdDeviation="0.2 0.2"
         result="blur"
         id="feGaussianBlur37" /></filter></defs><g
     inkscape:label="Layer 1"
     inkscape:groupmode="layer"
     id="layer1"><g
       id="g16"
       transform="matrix(0.70872308,0,0,1.0029288,-12.665034,1.3344305)"
       inkscape:label="wave-shadow"
       style="display:none"><path
         style="fill:#9de9fb;fill-opacity:1;stroke:#d1eefa;stroke-width:0.0539999;stroke-dasharray:none;stroke-opacity:1;filter:url(#filter35)"
         d="m 18.722494,2.8295825 c 0,0 2.615171,0.7262314 4.324546,-0.1607107 1.700119,-0.8821387 5.921892,0.080417 5.921892,0.080417 0,0 -3.035243,-0.6170002 -5.076116,0.4230707 -1.995234,1.0168124 -5.170322,-0.3427765 -5.170322,-0.342777 z"
         id="path14"
         sodipodi:nodetypes="cscsc" /><path
         style="fill:#9de9fb;fill-opacity:1;stroke:#d1eefa;stroke-width:0.0539999;stroke-dasharray:none;stroke-opacity:1;filter:url(#filter36)"
         d="m 18.757352,2.3542342 c 0,0 0.964742,0.4596932 1.716281,0.4112356 0.923311,-0.059533 2.756119,-0.6583158 2.756119,-0.6583158 -2.80673,0.5377826 -2.930753,0.5742862 -4.4724,0.2470802 z"
         id="path15"
         sodipodi:nodetypes="cscc" /><path
         style="fill:#9de9fb;fill-opacity:1;stroke:#d1eefa;stroke-width:0.0539999;stroke-dasharray:none;stroke-opacity:1;filter:url(#filter37)"
         d="m 28.849478,3.4266403 c 0,0 -0.964742,-0.4596932 -1.716281,-0.4112356 -0.923311,0.059533 -2.34788,0.5604006 -2.34788,0.5604006 2.80673,-0.5377826 2.522514,-0.476371 4.064161,-0.149165 z"
         id="path16"
         sodipodi:nodetypes="cscc" /></g><g
       id="g13"
       data-name="tiny - white"
       transform="matrix(0.07800501,0,0,0.07800501,1.3295843,0.32345714)"
       style="display:none;fill:#f8fafc;filter:url(#filter13)"
       inkscape:label="arxiv-shadow"><path
         d="m 586.72,255.616 a 3.377,3.377 0 0 1 0.448,0.031 5.917,5.917 0 0 1 3.581,2.79 c 0.454,1.116 0.314,2.023 -1.315,4.141 l -26.266,31.022 -8.558,-10.047 29.348,-26.616 a 4.406,4.406 0 0 1 2.762,-1.321 m 0,-1.5 a 5.766,5.766 0 0 0 -3.69,1.643 l -0.041,0.032 -0.038,0.035 -29.351,26.616 -1.077,0.977 0.943,1.107 8.558,10.047 1.145,1.344 1.141,-1.348 26.267,-31.022 0.022,-0.027 0.022,-0.028 c 1.574,-2.046 2.327,-3.622 1.516,-5.619 a 7.309,7.309 0 0 0 -4.779,-3.714 5.083,5.083 0 0 0 -0.64,-0.043 z"
         transform="translate(-526.086,-245.559)"
         fill="#ffffff"
         id="path9"
         style="fill:#f8fafc;fill-opacity:1;stroke-width:1.00859;stroke-dasharray:none" /><path
         d="m 553.423,284.593 8.977,10.558 35.511,42.749 c 0.873,1.093 1.419,2.186 1.047,3.418 a 4.092,4.092 0 0 1 -2.721,2.837 3.557,3.557 0 0 1 -1.045,0.159 4,4 0 0 1 -2.687,-1.124 L 548.01,300.808 c -3.5,-3.5 -2.971,-8.151 0.436,-11.558 l 4.977,-4.657 m 0.124,-2.17 -1.147,1.077 -4.976,4.656 c -4.192,4.191 -4.372,9.816 -0.473,13.714 l 44.521,42.4 a 5.485,5.485 0 0 0 3.722,1.538 5.1,5.1 0 0 0 1.483,-0.224 5.59,5.59 0 0 0 3.719,-3.838 5.176,5.176 0 0 0 -1.31,-4.788 l -35.53,-42.767 -8.988,-10.571 -1.019,-1.2 z"
         transform="translate(-526.086,-245.559)"
         fill="#ffffff"
         id="path10"
         style="fill:#f8fafc;fill-opacity:1;stroke-width:1.00859;stroke-dasharray:none" /><path
         d="m 562.4,295.151 9.556,11.5 5.761,-5.356 a 7.926,7.926 0 0 0 0.041,-11.743 l -43.7,-41.923 c 0,0 -1.671,-2.029 -3.437,-2.071 a 4.49,4.49 0 0 0 -4.23,2.718 c -0.688,1.651 -0.194,2.809 1.315,4.97 l 29.306,35.565 z"
         transform="translate(-526.086,-245.559)"
         fill="#ffffff"
         id="path11"
         style="fill:#f8fafc;fill-opacity:1" /><path
         d="m 553.7,306.223 -17.116,21.024 c -1.255,1.337 -2.032,3.683 -1.331,5.367 a 4.587,4.587 0 0 0 4.287,2.841 4.087,4.087 0 0 0 3.082,-1.523 l 20.328,-18.9 z"
         transform="translate(-526.086,-245.559)"
         fill="#ffffff"
         id="path12"
         style="fill:#f8fafc;fill-opacity:1" /><path
         d="M 592.074,250.547"
         transform="translate(-526.086,-245.559)"
         fill="#ffffff"
         stroke="#000000"
         stroke-miterlimit="10"
         stroke-width="0.25"
         id="path13"
         style="fill:#f8fafc" /></g><g
       id="g8"
       transform="matrix(0.70872308,0,0,1.0029288,-12.665034,1.3344305)"
       inkscape:label="wave"
       style="display:inline"><path
         style="fill:#077792;fill-opacity:1;stroke:#d1eefa;stroke-width:0.11861146;stroke-dasharray:none;stroke-opacity:1"
         d="m 18.722494,2.8295825 c 0,0 2.615171,0.7262314 4.324546,-0.1607107 1.700119,-0.8821387 5.921892,0.080417 5.921892,0.080417 0,0 -3.035243,-0.6170002 -5.076116,0.4230707 -1.995234,1.0168124 -5.170322,-0.3427765 -5.170322,-0.342777 z"
         id="path6"
         sodipodi:nodetypes="cscsc" /><path
         style="fill:#077792;fill-opacity:1;stroke:#d1eefa;stroke-width:0.11861146;stroke-dasharray:none;stroke-opacity:1"
         d="m 18.757352,2.3542342 c 0,0 0.964742,0.4596932 1.716281,0.4112356 0.923311,-0.059533 2.756119,-0.6583158 2.756119,-0.6583158 -2.80673,0.5377826 -2.930753,0.5742862 -4.4724,0.2470802 z"
         id="path7"
         sodipodi:nodetypes="cscc" /><path
         style="fill:#077792;fill-opacity:1;stroke:#d1eefa;stroke-width:0.11861146;stroke-dasharray:none;stroke-opacity:1"
         d="m 28.849478,3.4266403 c 0,0 -0.964742,-0.4596932 -1.716281,-0.4112356 -0.923311,0.059533 -2.34788,0.5604006 -2.34788,0.5604006 2.80673,-0.5377826 2.522514,-0.476371 4.064161,-0.149165 z"
         id="path8"
         sodipodi:nodetypes="cscc" /></g><g
       id="tiny_-_white"
       data-name="tiny - white"
       transform="matrix(0.07800501,0,0,0.07800501,1.3295843,0.32345714)"
       inkscape:label="arxiv"><path
         d="m 563.168,293.6 -8.558,-10.047 m 32.11,-29.437 c -1.38787,0.0848 -2.69834,0.66833 -3.69,1.643 l -0.041,0.032 -0.038,0.035 -29.351,26.616 -1.077,0.977 0.943,1.107 8.558,10.047 1.145,1.344 1.141,-1.348 26.267,-31.022 0.022,-0.027 0.022,-0.028 c 1.574,-2.046 2.327,-3.622 1.516,-5.619 -0.98149,-1.8704 -2.72417,-3.22472 -4.779,-3.714 -0.21222,-0.0278 -0.42597,-0.0422 -0.64,-0.043 z"
         transform="translate(-526.086,-245.559)"
         fill="#ffffff"
         id="path1"
         style="fill:#ffffff;fill-opacity:1;stroke-width:3.84590683;stroke-dasharray:none;stroke:#c24747;stroke-opacity:1"
         sodipodi:nodetypes="ccccccccccccccccccc" /><path
         d="m 553.547,282.423 -1.147,1.077 -4.976,4.656 c -4.192,4.191 -4.372,9.816 -0.473,13.714 l 44.521,42.4 c 1.00077,0.96606 2.3312,1.51582 3.722,1.538 0.50267,-0.001 1.00241,-0.0767 1.483,-0.224 1.81053,-0.56551 3.21077,-2.01056 3.719,-3.838 0.40705,-1.71494 -0.0866,-3.51915 -1.31,-4.788 l -35.53,-42.767 -8.988,-10.571 -1.019,-1.2 z"
         transform="translate(-526.086,-245.559)"
         fill="#ffffff"
         id="path2"
         style="fill:#ffffff;fill-opacity:1;stroke-width:3.84590683;stroke-dasharray:none;stroke:#c24747;stroke-opacity:1"
         sodipodi:nodetypes="ccccccccccccc" /><path
         d="m 562.4,295.151 9.556,11.5 5.761,-5.356 a 7.926,7.926 0 0 0 0.041,-11.743 l -43.7,-41.923 c 0,0 -1.671,-2.029 -3.437,-2.071 a 4.49,4.49 0 0 0 -4.23,2.718 c -0.688,1.651 -0.194,2.809 1.315,4.97 l 29.306,35.565 z"
         transform="translate(-526.086,-245.559)"
         fill="#ffffff"
         id="path3"
         style="display:inline;fill:#c24747;fill-opacity:1;stroke:#fcf7f7;stroke-opacity:1;stroke-width:3.84590683;stroke-dasharray:none" /><path
         d="m 553.7,306.223 -17.116,21.024 c -1.255,1.337 -2.032,3.683 -1.331,5.367 a 4.587,4.587 0 0 0 4.287,2.841 4.087,4.087 0 0 0 3.082,-1.523 l 20.328,-18.9 z"
         transform="translate(-526.086,-245.559)"
         fill="#ffffff"
         id="path4"
         style="fill:#c24747;fill-opacity:1;stroke:#ffffff;stroke-opacity:1;stroke-width:3.84590683;stroke-dasharray:none" /></g></g></svg>
