<?xml version="1.0" encoding="UTF-8" standalone="no"?>
<!-- Created with Inkscape (http://www.inkscape.org/) -->

<svg
   width="1280"
   height="640"
   viewBox="0 0 338.66666 169.33333"
   version="1.1"
   id="svg1"
   inkscape:version="1.3.2 (091e20ef0f, 2023-11-25, custom)"
   sodipodi:docname="social.svg"
   xml:space="preserve"
   inkscape:export-filename="social.png"
   inkscape:export-xdpi="96"
   inkscape:export-ydpi="96"
   xmlns:inkscape="http://www.inkscape.org/namespaces/inkscape"
   xmlns:sodipodi="http://sodipodi.sourceforge.net/DTD/sodipodi-0.dtd"
   xmlns:xlink="http://www.w3.org/1999/xlink"
   xmlns="http://www.w3.org/2000/svg"
   xmlns:svg="http://www.w3.org/2000/svg"><sodipodi:namedview
     id="namedview1"
     pagecolor="#ffffff"
     bordercolor="#ffffff"
     borderopacity="0"
     inkscape:showpageshadow="2"
     inkscape:pageopacity="0.0"
     inkscape:pagecheckerboard="0"
     inkscape:deskcolor="#d1d1d1"
     inkscape:document-units="mm"
     inkscape:zoom="0.50619093"
     inkscape:cx="733.91279"
     inkscape:cy="321.02511"
     inkscape:window-width="1536"
     inkscape:window-height="896"
     inkscape:window-x="0"
     inkscape:window-y="0"
     inkscape:window-maximized="1"
     inkscape:current-layer="layer1" /><defs
     id="defs1"><linearGradient
       id="linearGradient4"
       inkscape:collect="always"><stop
         style="stop-color:#fefce8;stop-opacity:1"
         offset="0"
         id="stop4" /><stop
         style="stop-color:#fef2f2;stop-opacity:1"
         offset="1"
         id="stop5" /></linearGradient><linearGradient
       id="linearGradient1"
       inkscape:collect="always"><stop
         style="stop-color:#475569;stop-opacity:1"
         offset="0"
         id="stop1" /><stop
         style="stop-color:#0f172a;stop-opacity:1"
         offset="1"
         id="stop2" /></linearGradient><filter
       style="color-interpolation-filters:sRGB"
       inkscape:label="Blur"
       id="filter13"
       x="-0.032236613"
       y="-0.023939862"
       width="1.0644732"
       height="1.0478797"><feGaussianBlur
         stdDeviation="1 1"
         result="blur"
         id="feGaussianBlur13" /></filter><filter
       style="color-interpolation-filters:sRGB"
       inkscape:label="Blur"
       id="filter35"
       x="-0.047882798"
       y="-0.40506152"
       width="1.0953141"
       height="1.809865"><feGaussianBlur
         stdDeviation="0.2 0.2"
         result="blur"
         id="feGaussianBlur35" /></filter><filter
       style="color-interpolation-filters:sRGB"
       inkscape:label="Blur"
       id="filter36"
       x="-0.10992179"
       y="-0.76525449"
       width="1.2191215"
       height="2.5312894"><feGaussianBlur
         stdDeviation="0.2 0.2"
         result="blur"
         id="feGaussianBlur36" /></filter><filter
       style="color-interpolation-filters:sRGB"
       inkscape:label="Blur"
       id="filter37"
       x="-0.12030911"
       y="-0.89903003"
       width="1.2412724"
       height="2.7971441"><feGaussianBlur
         stdDeviation="0.2 0.2"
         result="blur"
         id="feGaussianBlur37" /></filter><linearGradient
       inkscape:collect="always"
       xlink:href="#linearGradient1"
       id="linearGradient2"
       x1="169.33333"
       y1="0"
       x2="169.33333"
       y2="169.33333"
       gradientUnits="userSpaceOnUse" /><linearGradient
       inkscape:collect="always"
       xlink:href="#linearGradient4"
       id="linearGradient5"
       x1="326.10925"
       y1="79.442238"
       x2="32.14777"
       y2="169.33333"
       gradientUnits="userSpaceOnUse" /></defs><g
     inkscape:label="Layer 1"
     inkscape:groupmode="layer"
     id="layer1"><rect
       style="fill:url(#linearGradient2);stroke:none;stroke-width:2.82223;stroke-linejoin:round;fill-opacity:1"
       id="rect1"
       width="338.66666"
       height="169.33333"
       x="0"
       y="0"
       rx="1"
       ry="1" /><g
       id="g16"
       transform="matrix(0.70872308,0,0,1.0029288,-12.665034,1.3344305)"
       inkscape:label="wave-shadow"
       style="display:none"><path
         style="fill:#9de9fb;fill-opacity:1;stroke:#d1eefa;stroke-width:0.0539999;stroke-dasharray:none;stroke-opacity:1;filter:url(#filter35)"
         d="m 18.722494,2.8295825 c 0,0 2.615171,0.7262314 4.324546,-0.1607107 1.700119,-0.8821387 5.921892,0.080417 5.921892,0.080417 0,0 -3.035243,-0.6170002 -5.076116,0.4230707 -1.995234,1.0168124 -5.170322,-0.3427765 -5.170322,-0.342777 z"
         id="path14"
         sodipodi:nodetypes="cscsc" /><path
         style="fill:#9de9fb;fill-opacity:1;stroke:#d1eefa;stroke-width:0.0539999;stroke-dasharray:none;stroke-opacity:1;filter:url(#filter36)"
         d="m 18.757352,2.3542342 c 0,0 0.964742,0.4596932 1.716281,0.4112356 0.923311,-0.059533 2.756119,-0.6583158 2.756119,-0.6583158 -2.80673,0.5377826 -2.930753,0.5742862 -4.4724,0.2470802 z"
         id="path15"
         sodipodi:nodetypes="cscc" /><path
         style="fill:#9de9fb;fill-opacity:1;stroke:#d1eefa;stroke-width:0.0539999;stroke-dasharray:none;stroke-opacity:1;filter:url(#filter37)"
         d="m 28.849478,3.4266403 c 0,0 -0.964742,-0.4596932 -1.716281,-0.4112356 -0.923311,0.059533 -2.34788,0.5604006 -2.34788,0.5604006 2.80673,-0.5377826 2.522514,-0.476371 4.064161,-0.149165 z"
         id="path16"
         sodipodi:nodetypes="cscc" /></g><g
       id="g13"
       data-name="tiny - white"
       transform="matrix(0.07800501,0,0,0.07800501,1.3295843,0.32345714)"
       style="display:none;fill:#f8fafc;filter:url(#filter13)"
       inkscape:label="arxiv-shadow"><path
         d="m 586.72,255.616 a 3.377,3.377 0 0 1 0.448,0.031 5.917,5.917 0 0 1 3.581,2.79 c 0.454,1.116 0.314,2.023 -1.315,4.141 l -26.266,31.022 -8.558,-10.047 29.348,-26.616 a 4.406,4.406 0 0 1 2.762,-1.321 m 0,-1.5 a 5.766,5.766 0 0 0 -3.69,1.643 l -0.041,0.032 -0.038,0.035 -29.351,26.616 -1.077,0.977 0.943,1.107 8.558,10.047 1.145,1.344 1.141,-1.348 26.267,-31.022 0.022,-0.027 0.022,-0.028 c 1.574,-2.046 2.327,-3.622 1.516,-5.619 a 7.309,7.309 0 0 0 -4.779,-3.714 5.083,5.083 0 0 0 -0.64,-0.043 z"
         transform="translate(-526.086,-245.559)"
         fill="#ffffff"
         id="path9"
         style="fill:#f8fafc;fill-opacity:1;stroke-width:1.00859;stroke-dasharray:none" /><path
         d="m 553.423,284.593 8.977,10.558 35.511,42.749 c 0.873,1.093 1.419,2.186 1.047,3.418 a 4.092,4.092 0 0 1 -2.721,2.837 3.557,3.557 0 0 1 -1.045,0.159 4,4 0 0 1 -2.687,-1.124 L 548.01,300.808 c -3.5,-3.5 -2.971,-8.151 0.436,-11.558 l 4.977,-4.657 m 0.124,-2.17 -1.147,1.077 -4.976,4.656 c -4.192,4.191 -4.372,9.816 -0.473,13.714 l 44.521,42.4 a 5.485,5.485 0 0 0 3.722,1.538 5.1,5.1 0 0 0 1.483,-0.224 5.59,5.59 0 0 0 3.719,-3.838 5.176,5.176 0 0 0 -1.31,-4.788 l -35.53,-42.767 -8.988,-10.571 -1.019,-1.2 z"
         transform="translate(-526.086,-245.559)"
         fill="#ffffff"
         id="path10"
         style="fill:#f8fafc;fill-opacity:1;stroke-width:1.00859;stroke-dasharray:none" /><path
         d="m 562.4,295.151 9.556,11.5 5.761,-5.356 a 7.926,7.926 0 0 0 0.041,-11.743 l -43.7,-41.923 c 0,0 -1.671,-2.029 -3.437,-2.071 a 4.49,4.49 0 0 0 -4.23,2.718 c -0.688,1.651 -0.194,2.809 1.315,4.97 l 29.306,35.565 z"
         transform="translate(-526.086,-245.559)"
         fill="#ffffff"
         id="path11"
         style="fill:#f8fafc;fill-opacity:1" /><path
         d="m 553.7,306.223 -17.116,21.024 c -1.255,1.337 -2.032,3.683 -1.331,5.367 a 4.587,4.587 0 0 0 4.287,2.841 4.087,4.087 0 0 0 3.082,-1.523 l 20.328,-18.9 z"
         transform="translate(-526.086,-245.559)"
         fill="#ffffff"
         id="path12"
         style="fill:#f8fafc;fill-opacity:1" /><path
         d="M 592.074,250.547"
         transform="translate(-526.086,-245.559)"
         fill="#ffffff"
         stroke="#000000"
         stroke-miterlimit="10"
         stroke-width="0.25"
         id="path13"
         style="fill:#f8fafc" /></g><g
       id="g2"
       transform="matrix(0.67772515,0,0,0.67772515,54.571869,10.874785)"><g
         id="g8"
         transform="matrix(10.044971,0,0,14.214847,-70.145126,44.275468)"
         inkscape:label="wave"
         style="display:inline"><path
           style="fill:#077792;fill-opacity:1;stroke:#d1eefa;stroke-width:0.118611;stroke-dasharray:none;stroke-opacity:1"
           d="m 18.722494,2.8295825 c 0,0 2.615171,0.7262314 4.324546,-0.1607107 1.700119,-0.8821387 5.921892,0.080417 5.921892,0.080417 0,0 -3.035243,-0.6170002 -5.076116,0.4230707 -1.995234,1.0168124 -5.170322,-0.3427765 -5.170322,-0.342777 z"
           id="path6"
           sodipodi:nodetypes="cscsc" /><path
           style="fill:#077792;fill-opacity:1;stroke:#d1eefa;stroke-width:0.118611;stroke-dasharray:none;stroke-opacity:1"
           d="m 18.757352,2.3542342 c 0,0 0.964742,0.4596932 1.716281,0.4112356 0.923311,-0.059533 2.756119,-0.6583158 2.756119,-0.6583158 -2.80673,0.5377826 -2.930753,0.5742862 -4.4724,0.2470802 z"
           id="path7"
           sodipodi:nodetypes="cscc" /><path
           style="fill:#077792;fill-opacity:1;stroke:#d1eefa;stroke-width:0.118611;stroke-dasharray:none;stroke-opacity:1"
           d="m 28.849478,3.4266403 c 0,0 -0.964742,-0.4596932 -1.716281,-0.4112356 -0.923311,0.059533 -2.34788,0.5604006 -2.34788,0.5604006 2.80673,-0.5377826 2.522514,-0.476371 4.064161,-0.149165 z"
           id="path8"
           sodipodi:nodetypes="cscc" /></g><g
         id="tiny_-_white"
         data-name="tiny - white"
         transform="matrix(1.1055913,0,0,1.1055913,128.16713,29.250656)"
         inkscape:label="arxiv"><path
           d="m 563.168,293.6 -8.558,-10.047 m 32.11,-29.437 c -1.38787,0.0848 -2.69834,0.66833 -3.69,1.643 l -0.041,0.032 -0.038,0.035 -29.351,26.616 -1.077,0.977 0.943,1.107 8.558,10.047 1.145,1.344 1.141,-1.348 26.267,-31.022 0.022,-0.027 0.022,-0.028 c 1.574,-2.046 2.327,-3.622 1.516,-5.619 -0.98149,-1.8704 -2.72417,-3.22472 -4.779,-3.714 -0.21222,-0.0278 -0.42597,-0.0422 -0.64,-0.043 z"
           transform="translate(-526.086,-245.559)"
           fill="#ffffff"
           id="path1"
           style="fill:#ffffff;fill-opacity:1;stroke:#c24747;stroke-width:3.84591;stroke-dasharray:none;stroke-opacity:1"
           sodipodi:nodetypes="ccccccccccccccccccc" /><path
           d="m 553.547,282.423 -1.147,1.077 -4.976,4.656 c -4.192,4.191 -4.372,9.816 -0.473,13.714 l 44.521,42.4 c 1.00077,0.96606 2.3312,1.51582 3.722,1.538 0.50267,-10e-4 1.00241,-0.0767 1.483,-0.224 1.81053,-0.56551 3.21077,-2.01056 3.719,-3.838 0.40705,-1.71494 -0.0866,-3.51915 -1.31,-4.788 l -35.53,-42.767 -8.988,-10.571 -1.019,-1.2 z"
           transform="translate(-526.086,-245.559)"
           fill="#ffffff"
           id="path2"
           style="fill:#ffffff;fill-opacity:1;stroke:#c24747;stroke-width:3.84591;stroke-dasharray:none;stroke-opacity:1"
           sodipodi:nodetypes="ccccccccccccc" /><path
           d="m 562.4,295.151 9.556,11.5 5.761,-5.356 a 7.926,7.926 0 0 0 0.041,-11.743 l -43.7,-41.923 c 0,0 -1.671,-2.029 -3.437,-2.071 a 4.49,4.49 0 0 0 -4.23,2.718 c -0.688,1.651 -0.194,2.809 1.315,4.97 l 29.306,35.565 z"
           transform="translate(-526.086,-245.559)"
           fill="#ffffff"
           id="path3"
           style="display:inline;fill:#c24747;fill-opacity:1;stroke:#fcf7f7;stroke-width:3.84591;stroke-dasharray:none;stroke-opacity:1" /><path
           d="m 553.7,306.223 -17.116,21.024 c -1.255,1.337 -2.032,3.683 -1.331,5.367 a 4.587,4.587 0 0 0 4.287,2.841 4.087,4.087 0 0 0 3.082,-1.523 l 20.328,-18.9 z"
           transform="translate(-526.086,-245.559)"
           fill="#ffffff"
           id="path4"
           style="fill:#c24747;fill-opacity:1;stroke:#ffffff;stroke-width:3.84591;stroke-dasharray:none;stroke-opacity:1" /></g></g><path
       style="font-style:italic;font-weight:bold;font-size:21.1667px;line-height:1;font-family:Lora;-inkscape-font-specification:'Lora Bold Italic';text-align:center;text-anchor:middle;fill:url(#linearGradient5);stroke-width:2.82222;stroke-linejoin:round;fill-opacity:1"
       d="m 50.048395,123.52477 q 0.592668,0 1.375836,0.127 0.804335,0.10584 1.672169,0.3175 -0.105833,0.78317 -0.275167,1.92617 -0.169333,1.14301 -0.338667,2.34951 -0.148167,1.18533 -0.254,2.20133 -0.105834,0.99484 -0.105834,1.54517 0,0.381 0.08467,0.508 0.105833,0.10584 0.211667,0.10584 0.254,0 0.529167,-0.35984 0.275168,-0.35983 0.550335,-1.31233 l 1.143001,0.33867 q -0.08467,0.4445 -0.296333,1.016 -0.211667,0.5715 -0.571501,1.10067 -0.338667,0.508 -0.867835,0.84666 -0.508001,0.33867 -1.206502,0.33867 -0.677334,0 -1.185335,-0.40217 -0.508001,-0.40216 -0.508001,-1.524 0,-0.27517 0.02117,-0.61383 0.02117,-0.33867 0.0635,-0.61384 h -0.02117 q -0.381,0.91017 -0.825501,1.52401 -0.423334,0.61383 -0.889002,0.97366 -0.4445,0.35984 -0.931334,0.508 -0.465668,0.14817 -0.952502,0.14817 -1.164168,0 -1.98967,-0.93133 -0.825501,-0.9525 -0.825501,-2.92101 0,-1.4605 0.423334,-2.75167 0.423334,-1.29117 1.248835,-2.286 0.825502,-1.016 2.010837,-1.58751 1.185335,-0.5715 2.709337,-0.5715 z m -0.783167,1.39701 q -0.592668,0 -1.100669,0.381 -0.486834,0.381 -0.867835,1.12183 -0.359833,0.74084 -0.550334,1.8415 -0.1905,1.10067 -0.1905,2.56118 0,0.86783 0.211667,1.37583 0.211667,0.48684 0.592668,0.48684 0.465667,0 0.867834,-0.46567 0.402168,-0.48684 0.719668,-1.29117 0.338667,-0.8255 0.571501,-1.82034 0.254,-1.016 0.402167,-2.05317 0.169334,-1.05833 0.211667,-2.01083 -0.105833,-0.0423 -0.381,-0.0847 -0.254001,-0.0423 -0.486834,-0.0423 z m 7.429507,9.41918 q -0.04233,-0.4445 -0.0635,-0.61384 0,-0.1905 0,-0.40216 0,-0.4445 0.04233,-1.05834 0.0635,-0.635 0.148167,-1.35467 0.08467,-0.71967 0.169334,-1.41817 0.105833,-0.762 0.1905,-1.43933 0.105833,-0.6985 0.148167,-1.22767 0.0635,-0.52917 0.0635,-0.78317 0,-0.35983 -0.105834,-0.4445 -0.08467,-0.10583 -0.1905,-0.10583 -0.232834,0 -0.486834,0.35983 -0.254,0.35983 -0.529168,1.31234 l -1.164168,-0.33867 q 0.105833,-0.4445 0.296334,-1.016 0.1905,-0.5715 0.529167,-1.0795 0.338667,-0.52917 0.825502,-0.86784 0.486834,-0.33867 1.185335,-0.33867 0.677334,0 1.227668,0.40217 0.550335,0.40217 0.550335,1.524 0,0.33867 -0.0635,0.80434 -0.04233,0.46567 -0.148167,1.0795 h 0.02117 q 0.571501,-1.60867 1.164169,-2.413 0.613834,-0.82551 1.206502,-1.10067 0.592667,-0.29634 1.100668,-0.29634 0.804335,0 1.291169,0.4445 0.486834,0.42334 0.486834,1.16417 0,0.55034 -0.402167,0.99484 -0.381001,0.4445 -1.016002,0.4445 -0.465667,0 -0.825501,-0.29634 -0.359834,-0.29633 -0.338667,-0.80433 -0.359834,-0.0423 -0.740835,0.42333 -0.359834,0.4445 -0.698501,1.24884 -0.317501,0.78317 -0.592668,1.75684 -0.254,0.97366 -0.423334,1.98967 -0.148167,1.016 -0.148167,1.92617 0,0.27516 0.02117,0.78316 0.02117,0.48684 0.04233,0.74084 z m 6.879175,0 0.08467,-1.397 q 0.613835,-0.14817 1.248836,-0.67734 0.656167,-0.55033 1.481669,-1.5875 l 2.645837,-3.28084 q -0.783168,-1.0795 -1.587502,-2.159 -0.804335,-1.07951 -1.60867,-2.15901 -0.338667,-0.4445 -0.656167,-0.9525 -0.296334,-0.508 -0.508001,-1.03717 -0.338667,0.0212 -0.486834,0.0423 -0.127,0 -0.359834,0.0212 l 0.08467,-1.62983 h 6.392343 l -0.08467,1.397 q -0.762001,0 -1.079501,0.1905 -0.296334,0.1905 -0.254001,0.52917 0.0635,0.3175 0.359834,0.71967 l 1.73567,2.39183 1.735669,-2.2225 q 0.486834,-0.61384 0.762001,-0.889 0.275167,-0.29634 0.550334,-0.5715 -0.338667,0.0212 -0.846668,0.0423 -0.508,0.0212 -0.740834,0.0423 l 0.08467,-1.62983 h 4.826007 l -0.08467,1.397 q -0.486834,0.0635 -0.973669,0.33867 -0.486834,0.27516 -1.016001,0.78316 -0.508001,0.48684 -1.121835,1.27001 l -2.18017,2.77283 3.725339,5.08001 q 0.338667,0.4445 0.613834,0.84667 0.296334,0.40217 0.444501,0.762 0.359834,-0.0423 0.465667,-0.0423 0.127,-0.0212 0.359834,-0.0212 l -0.08467,1.62984 h -6.28651 l 0.08467,-1.397 q 0.783168,0 1.037168,-0.1905 0.254001,-0.19051 0.148167,-0.50801 -0.105833,-0.33866 -0.423334,-0.74083 l -2.010836,-2.7305 -1.98967,2.56117 q -0.465667,0.59266 -0.719668,0.889 -0.254,0.29633 -0.529167,0.5715 0.359834,-0.0423 0.825501,-0.0635 0.465667,-0.0212 0.698501,-0.0212 l -0.08467,1.62984 z m 16.975692,-10.81619 q 1.100668,0 1.524002,0.67734 0.444501,0.65617 0.444501,1.778 0,0.508 -0.105833,1.37584 -0.105834,0.86783 -0.232834,1.82033 -0.127,0.9525 -0.232834,1.73567 -0.105833,0.78317 -0.105833,1.143 0,0.33867 0.105833,0.4445 0.105834,0.10584 0.211667,0.10584 0.254001,0 0.508001,-0.35984 0.254,-0.35983 0.529168,-1.31233 l 1.143001,0.33867 q -0.08467,0.4445 -0.338667,1.016 -0.232834,0.5715 -0.635001,1.10067 -0.402167,0.508 -0.973668,0.84666 -0.550334,0.33867 -1.270002,0.33867 -1.164169,0 -1.608669,-0.635 -0.423334,-0.635 -0.423334,-1.75684 0,-0.61383 0.105833,-1.4605 0.105834,-0.84667 0.232834,-1.73567 0.148167,-0.889 0.254,-1.651 0.105834,-0.78317 0.105834,-1.29117 0,-0.35983 -0.105834,-0.4445 -0.105833,-0.10583 -0.232833,-0.10583 -0.232834,0 -0.486835,0.35983 -0.254,0.35983 -0.529167,1.31234 l -1.143002,-0.33867 q 0.08467,-0.4445 0.338667,-1.016 0.254001,-0.5715 0.656168,-1.0795 0.423334,-0.52917 0.973668,-0.86784 0.571501,-0.33867 1.291169,-0.33867 z m 0.740834,-5.334 q 0.698502,0 1.121836,0.508 0.4445,0.508 0.402167,1.24883 -0.02117,0.71967 -0.486834,1.22767 -0.465668,0.48683 -1.164169,0.48683 -0.719668,0 -1.164168,-0.48683 -0.423334,-0.508 -0.402168,-1.22767 0.04233,-0.74083 0.550335,-1.24883 0.508,-0.508 1.143001,-0.508 z m 10.879681,5.334 q 0.677335,0 1.185335,0.3175 0.529168,0.29634 0.867835,0.82551 0.359834,0.52916 0.529168,1.22766 0.1905,0.69851 0.1905,1.48167 0,1.10067 -0.381001,2.34951 -0.381,1.24883 -1.121835,2.3495 -0.719668,1.10067 -1.778003,1.79917 -1.037168,0.6985 -2.37067,0.6985 -0.952502,0 -1.545169,-0.40217 -0.592668,-0.40216 -0.867835,-1.143 -0.275167,-0.74083 -0.275167,-1.75683 0,-0.55034 0.04233,-1.27001 0.0635,-0.74083 0.127001,-1.50283 0.0635,-0.762 0.105833,-1.41817 0.0635,-0.65617 0.0635,-1.03717 0,-0.35983 -0.127,-0.4445 -0.105834,-0.10583 -0.211667,-0.10583 -0.232834,0 -0.486834,0.35983 -0.254001,0.35983 -0.529168,1.31234 l -1.143002,-0.33867 q 0.08467,-0.4445 0.317501,-1.016 0.254,-0.5715 0.656168,-1.0795 0.402167,-0.52917 0.952501,-0.86784 0.550334,-0.33867 1.270002,-0.33867 0.825502,0 1.248836,0.33867 0.4445,0.33867 0.613834,0.889 0.169333,0.55034 0.169333,1.22767 0,0.67734 -0.0635,1.48167 -0.04233,0.80433 -0.127,1.62984 -0.08467,0.80433 -0.148167,1.50283 -0.04233,0.6985 -0.04233,1.18534 0,0.21166 0.04233,0.508 0.0635,0.27516 0.211667,0.48683 0.169334,0.21167 0.508001,0.21167 0.571501,-0.0212 1.143002,-0.4445 0.592668,-0.42334 1.079502,-1.16417 0.508,-0.74083 0.804334,-1.7145 0.296334,-0.99484 0.296334,-2.09551 0,-0.23283 -0.04233,-0.46566 -0.04233,-0.254 -0.127001,-0.46567 -0.0635,-0.23283 -0.169333,-0.40217 -0.08467,-0.1905 -0.1905,-0.29633 -0.190501,0.14816 -0.444501,0.27516 -0.232834,0.10584 -0.529168,0.10584 -0.423334,0 -0.867834,-0.29634 -0.444501,-0.3175 -0.444501,-1.016 0,-0.29633 0.148167,-0.635 0.148167,-0.35983 0.508001,-0.59267 0.359833,-0.254 0.952501,-0.254 z m 14.414543,10.94319 -3.19617,-11.40885 q -0.1905,-0.52917 -0.35983,-1.07951 -0.14817,-0.55033 -0.127,-0.889 -0.33867,0.0212 -0.61384,0.0423 -0.27516,0 -0.508,0.0212 l 0.0847,-1.62983 h 6.18068 l -0.0847,1.397 q -0.78317,-0.0212 -1.16417,0.29633 -0.381,0.3175 -0.16933,1.29117 l 1.03717,4.82601 q 0.14816,0.71967 0.27516,1.35467 0.127,0.635 0.27517,1.651 h 0.0212 q 0.0847,-0.29633 0.27516,-0.91017 0.21167,-0.61383 0.4445,-1.31233 0.23284,-0.71967 0.42334,-1.29117 0.1905,-0.59267 0.27517,-0.8255 l 2.30717,-6.47701 h 1.905 l 1.98967,7.78934 q 0.1905,0.71967 0.3175,1.50284 0.14817,0.762 0.27517,1.54517 h 0.0212 q 0.23284,-0.67734 0.46567,-1.397 0.254,-0.74084 0.508,-1.52401 0.16934,-0.55033 0.33867,-1.10067 0.1905,-0.55033 0.35983,-1.10066 0.16934,-0.5715 0.33867,-1.12184 0.1905,-0.55033 0.35983,-1.10067 0.16934,-0.508 0.40217,-1.03717 0.23283,-0.55033 0.5715,-0.91016 -0.33867,0.0212 -0.86783,0.0423 -0.52917,0.0212 -0.762,0.0423 l 0.0847,-1.62983 h 4.76251 l -0.0635,1.397 q -0.35983,0.0212 -0.6985,0.14817 -0.3175,0.127 -0.61384,0.381 -0.29633,0.254 -0.5715,0.6985 -0.254,0.42333 -0.48683,1.03717 l -4.04284,11.28185 h -1.8415 l -2.11667,-7.57768 q -0.23284,-0.8255 -0.381,-1.60867 -0.127,-0.80433 -0.23284,-1.524 h -0.0212 q -0.14817,0.71967 -0.33867,1.397 -0.16933,0.65617 -0.42334,1.37584 l -2.83633,7.93751 z m 20.48936,-10.94319 q 1.18534,0 2.13784,0.55034 0.97366,0.55033 1.54517,1.60867 0.5715,1.05833 0.5715,2.56117 0,1.67217 -0.65617,3.13267 -0.635,1.43934 -1.82034,2.32834 -1.18533,0.86783 -2.83634,0.86783 -1.41816,0 -2.37067,-0.635 -0.9525,-0.65617 -1.41816,-1.75684 -0.46567,-1.10066 -0.46567,-2.413 0,-1.69334 0.635,-3.1115 0.65617,-1.41817 1.8415,-2.26484 1.2065,-0.86784 2.83634,-0.86784 z m -0.3175,1.39701 q -0.635,-0.0212 -1.12184,0.5715 -0.46566,0.5715 -0.74083,1.54517 -0.254,0.97366 -0.254,2.13783 0,0.635 0.0635,1.3335 0.0847,0.69851 0.27517,1.31234 0.21166,0.59267 0.52916,0.97367 0.33867,0.381 0.84667,0.381 0.55034,0 0.93134,-0.42333 0.381,-0.42334 0.61383,-1.07951 0.254,-0.67733 0.35984,-1.41817 0.127,-0.74083 0.14816,-1.397 0.0212,-0.5715 -0.0423,-1.24883 -0.0635,-0.67734 -0.23284,-1.29117 -0.16933,-0.61384 -0.508,-0.99484 -0.33866,-0.40216 -0.86783,-0.40216 z m 7.26017,9.41918 q -0.0423,-0.4445 -0.0635,-0.61384 0,-0.1905 0,-0.40216 0,-0.4445 0.0423,-1.05834 0.0635,-0.635 0.14817,-1.35467 0.0847,-0.71967 0.16933,-1.41817 0.10583,-0.762 0.1905,-1.43933 0.10584,-0.6985 0.14817,-1.22767 0.0635,-0.52917 0.0635,-0.78317 0,-0.35983 -0.10583,-0.4445 -0.0847,-0.10583 -0.19051,-0.10583 -0.23283,0 -0.48683,0.35983 -0.254,0.35983 -0.52917,1.31234 l -1.16417,-0.33867 q 0.10584,-0.4445 0.29634,-1.016 0.1905,-0.5715 0.52917,-1.0795 0.33866,-0.52917 0.8255,-0.86784 0.48683,-0.33867 1.18533,-0.33867 0.67734,0 1.22767,0.40217 0.55034,0.40217 0.55034,1.524 0,0.33867 -0.0635,0.80434 -0.0423,0.46567 -0.14817,1.0795 h 0.0212 q 0.5715,-1.60867 1.16416,-2.413 0.61384,-0.82551 1.20651,-1.10067 0.59266,-0.29634 1.10066,-0.29634 0.80434,0 1.29117,0.4445 0.48684,0.42334 0.48684,1.16417 0,0.55034 -0.40217,0.99484 -0.381,0.4445 -1.016,0.4445 -0.46567,0 -0.8255,-0.29634 -0.35984,-0.29633 -0.33867,-0.80433 -0.35983,-0.0423 -0.74084,0.42333 -0.35983,0.4445 -0.6985,1.24884 -0.3175,0.78317 -0.59266,1.75684 -0.254,0.97366 -0.42334,1.98967 -0.14816,1.016 -0.14816,1.92617 0,0.27516 0.0212,0.78316 0.0212,0.48684 0.0423,0.74084 z m 15.51518,0.23283 q -0.93133,0 -1.524,-0.59267 -0.59267,-0.59266 -1.16417,-2.13783 -0.21166,-0.5715 -0.381,-1.016 -0.16933,-0.44451 -0.40216,-0.59267 -0.0847,-0.0635 -0.1905,-0.0847 -0.0847,-0.0423 -0.19051,0 -0.127,0.59267 -0.1905,1.41817 -0.0635,0.80433 -0.0635,1.35467 0,0.27517 0.0212,0.6985 0.0212,0.42333 0.0423,0.71967 h -2.75167 q -0.0423,-0.4445 -0.0635,-0.635 0,-0.1905 0,-0.40217 0,-0.23283 0.0212,-0.9525 0.0423,-0.74084 0.10583,-1.82034 0.0635,-1.0795 0.16934,-2.39184 0.10583,-1.3335 0.23283,-2.77283 0.14817,-1.43934 0.33867,-2.85751 0.0423,-0.42333 0.127,-0.9525 0.10583,-0.55033 0.1905,-1.016 -0.33867,0.0212 -0.8255,0.0423 -0.46567,0 -0.6985,0.0212 l 0.0847,-1.60867 q 0.99484,0 1.65101,-0.10583 0.65616,-0.10584 1.03716,-0.254 0.40217,-0.14817 0.55034,-0.27517 h 1.143 q -0.10583,0.762 -0.23283,1.5875 -0.10584,0.80434 -0.21167,1.651 -0.10583,0.82551 -0.21167,1.71451 -0.0847,0.86783 -0.21166,1.524 -0.10584,0.65617 -0.21167,1.22767 h 0.0212 q 0.46566,-0.93134 1.03716,-1.48167 0.59267,-0.5715 1.18534,-0.80434 0.61383,-0.254 1.16417,-0.254 0.78317,0 1.29117,0.27517 0.508,0.27517 0.74083,0.78317 0.254,0.48683 0.254,1.18533 0,0.63501 -0.381,1.41817 -0.35983,0.78317 -1.24884,1.46051 -0.86783,0.67733 -2.39183,0.99483 v 0.0212 q 0.889,0.0212 1.27,0.46566 0.40217,0.42334 0.5715,0.86784 0.21167,0.4445 0.35983,0.78317 0.16934,0.33866 0.31751,0.52916 0.16933,0.16934 0.33866,0.16934 0.23284,0 0.4445,-0.3175 0.23284,-0.3175 0.46567,-1.143 l 1.143,0.35983 q -0.14816,0.762 -0.52917,1.50284 -0.35983,0.71966 -0.93133,1.2065 -0.55033,0.48683 -1.31234,0.48683 z m -3.70417,-5.77851 q 1.56634,0 2.30717,-0.78317 0.74084,-0.80433 0.74084,-2.159 0,-0.27517 -0.0635,-0.48683 -0.0423,-0.21167 -0.16934,-0.3175 -0.127,-0.127 -0.3175,-0.127 -0.33866,0 -0.84667,0.4445 -0.48683,0.4445 -0.9525,1.31233 -0.4445,0.86784 -0.6985,2.11667 z m 6.41351,11.28185 q -0.97367,0 -1.48167,-0.42333 -0.52917,-0.40217 -0.52917,-1.10067 0,-0.52917 0.33867,-0.93133 0.3175,-0.40217 0.93133,-0.40217 0.44451,0 0.78317,0.29633 0.3175,0.3175 0.3175,0.80434 0,0.0423 0,0.0847 0,0.0635 -0.0212,0.127 0.127,0.0423 0.27516,0.0423 0.35984,0 0.59267,-0.381 0.23283,-0.381 0.35983,-0.99484 0.14817,-0.61383 0.21167,-1.31233 0.0847,-0.6985 0.14817,-1.31234 0.0847,-0.91017 0.16933,-2.11667 0.0847,-1.22767 0.16934,-2.54 0.10583,-1.3335 0.1905,-2.54001 0.10583,-1.2065 0.16933,-2.0955 l -1.69334,0.0212 0.1905,-1.54517 h 1.69334 q 0.35983,-2.73051 1.5875,-4.10634 1.24884,-1.397 3.66184,-1.397 0.91017,0 1.651,0.23283 0.74084,0.23283 1.33351,0.23283 0.254,0 0.46566,-0.0635 0.23284,-0.0847 0.42334,-0.29633 h 1.16417 q -0.42334,3.6195 -0.6985,6.05368 -0.27517,2.413 -0.44451,3.91583 -0.16933,1.50284 -0.23283,2.34951 -0.0635,0.8255 -0.0635,1.31233 0,0.381 0.10583,0.508 0.10584,0.10584 0.21167,0.10584 0.23284,0 0.48684,-0.35984 0.254,-0.35983 0.52916,-1.31233 l 1.143,0.33867 q -0.127,0.52916 -0.35983,1.12183 -0.23283,0.5715 -0.635,1.0795 -0.381,0.48684 -0.93133,0.80434 -0.55034,0.29633 -1.31234,0.29633 -0.78317,0 -1.35467,-0.46567 -0.5715,-0.46566 -0.5715,-1.56633 0,-0.9525 0.0847,-2.13784 0.0847,-1.18533 0.21166,-2.49767 0.127,-1.31233 0.27517,-2.667 0.16933,-1.37584 0.3175,-2.73051 0.0423,-0.40217 0.127,-1.05833 0.10584,-0.65617 0.14817,-1.12184 -0.46567,-0.35983 -1.016,-0.508 -0.52917,-0.16933 -1.016,-0.16933 -0.88901,0 -1.41817,0.42333 -0.52917,0.40217 -0.80434,1.31234 -0.27517,0.889 -0.4445,2.37067 h 2.20134 l -0.127,1.4605 -2.15901,0.0423 q -0.0635,0.91017 -0.14816,2.13784 -0.0847,1.2065 -0.1905,2.54 -0.10584,1.31234 -0.21167,2.54001 -0.10583,1.2065 -0.21167,2.0955 -0.1905,1.62984 -0.71966,2.87867 -0.52917,1.24884 -1.48167,1.92617 -0.95251,0.6985 -2.39184,0.6985 z m 20.25655,-16.55236 q 1.18533,0 2.13783,0.55034 0.97367,0.55033 1.54517,1.60867 0.5715,1.05833 0.5715,2.56117 0,1.67217 -0.65616,3.13267 -0.63501,1.43934 -1.82034,2.32834 -1.18534,0.86783 -2.83634,0.86783 -1.41817,0 -2.37067,-0.635 -0.9525,-0.65617 -1.41817,-1.75684 -0.46567,-1.10066 -0.46567,-2.413 0,-1.69334 0.63501,-3.1115 0.65616,-1.41817 1.8415,-2.26484 1.2065,-0.86784 2.83634,-0.86784 z m -0.3175,1.39701 q -0.63501,-0.0212 -1.12184,0.5715 -0.46567,0.5715 -0.74083,1.54517 -0.254,0.97366 -0.254,2.13783 0,0.635 0.0635,1.3335 0.0847,0.69851 0.27516,1.31234 0.21167,0.59267 0.52917,0.97367 0.33867,0.381 0.84667,0.381 0.55033,0 0.93133,-0.42333 0.381,-0.42334 0.61384,-1.07951 0.254,-0.67733 0.35983,-1.41817 0.127,-0.74083 0.14817,-1.397 0.0212,-0.5715 -0.0423,-1.24883 -0.0635,-0.67734 -0.23284,-1.29117 -0.16933,-0.61384 -0.508,-0.99484 -0.33867,-0.40216 -0.86783,-0.40216 z m 18.73252,-1.39701 q 0.67734,0 1.18534,0.3175 0.52917,0.29634 0.86783,0.82551 0.35984,0.52916 0.52917,1.22766 0.1905,0.69851 0.1905,1.48167 0,1.12184 -0.4445,2.37067 -0.4445,1.24884 -1.24883,2.34951 -0.80434,1.10067 -1.88384,1.79917 -1.0795,0.67733 -2.37067,0.67733 -0.91017,0 -1.41817,-0.42333 -0.508,-0.42334 -0.67733,-1.12184 -0.14817,-0.71967 -0.0423,-1.54517 -0.29633,1.143 -0.86783,1.82034 -0.55034,0.67733 -1.24884,0.97367 -0.6985,0.29633 -1.41817,0.29633 -1.35467,0 -1.9685,-0.86783 -0.61383,-0.889 -0.61383,-2.43417 0,-0.55034 0.0635,-1.27001 0.0847,-0.74083 0.16933,-1.50283 0.10583,-0.762 0.16933,-1.41817 0.0847,-0.65617 0.0847,-1.03717 0,-0.35983 -0.127,-0.4445 -0.10583,-0.10583 -0.21167,-0.10583 -0.254,0 -0.508,0.35983 -0.254,0.35983 -0.52917,1.31234 l -1.143,-0.33867 q 0.0847,-0.4445 0.3175,-1.016 0.254,-0.5715 0.65617,-1.0795 0.40217,-0.52917 0.9525,-0.86784 0.55034,-0.33867 1.27,-0.33867 0.82551,0 1.27001,0.33867 0.4445,0.33867 0.61383,0.889 0.16933,0.55034 0.16933,1.22767 0,0.67734 -0.0847,1.48167 -0.0635,0.80433 -0.16934,1.62984 -0.10583,0.80433 -0.1905,1.50283 -0.0635,0.6985 -0.0635,1.18534 0,0.21166 0.0212,0.508 0.0423,0.27516 0.16933,0.48683 0.127,0.21167 0.40217,0.21167 0.61383,0 1.05834,-0.55034 0.4445,-0.55033 0.74083,-1.41816 0.3175,-0.88901 0.48683,-1.92617 0.1905,-1.03717 0.254,-2.03201 0.0847,-1.016 0.0847,-1.778 0,-0.29633 -0.0212,-0.78317 -0.0212,-0.48683 -0.0423,-0.74083 h 2.73051 q 0.0423,0.4445 0.0423,0.635 0,0.16933 0,0.381 0,0.67733 -0.0847,1.67217 -0.0635,0.99483 -0.16933,2.05317 -0.0847,1.03717 -0.16934,1.92617 -0.0635,0.86783 -0.0635,1.35467 0,0.33866 0.16934,0.78316 0.1905,0.42334 0.67733,0.42334 0.55034,0 1.16417,-0.42334 0.635,-0.4445 1.18534,-1.18533 0.5715,-0.762 0.93133,-1.73567 0.35984,-0.99483 0.35984,-2.07434 0,-0.23283 -0.0423,-0.46566 -0.0423,-0.254 -0.127,-0.46567 -0.0635,-0.23283 -0.16933,-0.40217 -0.0847,-0.1905 -0.1905,-0.29633 -0.1905,0.14816 -0.4445,0.27516 -0.23284,0.10584 -0.52917,0.10584 -0.42333,0 -0.86784,-0.29634 -0.4445,-0.3175 -0.4445,-1.016 0,-0.29633 0.14817,-0.635 0.14817,-0.35983 0.508,-0.59267 0.35984,-0.254 0.9525,-0.254 z m 15.93854,-5.2705 q 0.9525,0 1.4605,0.4445 0.52917,0.4445 0.52917,1.12183 0,0.23283 -0.127,0.55034 -0.127,0.29633 -0.42334,0.52916 -0.27516,0.21167 -0.762,0.21167 -0.46566,-0.0212 -0.80433,-0.381 -0.3175,-0.381 -0.23284,-0.93134 -0.0212,-0.0212 -0.10583,-0.0212 -0.0635,-0.0212 -0.16933,-0.0212 -0.35984,0 -0.59267,0.381 -0.23283,0.381 -0.381,0.99484 -0.127,0.61383 -0.21167,1.31233 -0.0635,0.6985 -0.127,1.31234 h 2.73051 l -0.14817,1.4605 -2.667,0.0423 q -0.0635,0.91017 -0.14817,2.13784 -0.0847,1.2065 -0.1905,2.54 -0.10584,1.31234 -0.21167,2.54001 -0.10583,1.2065 -0.21167,2.0955 -0.10583,0.97367 -0.35983,1.82034 -0.23283,0.84667 -0.59267,1.524 -0.35983,0.67733 -0.889,1.16417 -0.52917,0.48683 -1.2065,0.74083 -0.67734,0.254 -1.54517,0.254 -0.97367,0 -1.48167,-0.42333 -0.52917,-0.40217 -0.52917,-1.10067 0,-0.254 0.127,-0.5715 0.127,-0.3175 0.42334,-0.55033 0.29633,-0.23284 0.762,-0.21167 0.48683,0.0212 0.80433,0.381 0.3175,0.381 0.23284,0.93133 0.127,0.0423 0.27516,0.0423 0.35984,0 0.59267,-0.381 0.23284,-0.381 0.35984,-0.99484 0.14816,-0.61383 0.21166,-1.31233 0.0847,-0.6985 0.14817,-1.31234 0.0847,-0.91017 0.16933,-2.11667 0.0847,-1.22767 0.16934,-2.54 0.10583,-1.3335 0.1905,-2.54001 0.10583,-1.2065 0.16933,-2.0955 l -1.69334,0.0212 0.19051,-1.54517 h 1.69333 q 0.1905,-1.62984 0.6985,-2.85751 0.52917,-1.24883 1.48167,-1.94733 0.9525,-0.6985 2.39184,-0.6985 z m 6.26535,5.2705 q 1.18533,0 2.13783,0.55034 0.97367,0.55033 1.54517,1.60867 0.5715,1.05833 0.5715,2.56117 0,1.67217 -0.65616,3.13267 -0.635,1.43934 -1.82034,2.32834 -1.18533,0.86783 -2.83634,0.86783 -1.41817,0 -2.37067,-0.635 -0.9525,-0.65617 -1.41817,-1.75684 -0.46566,-1.10066 -0.46566,-2.413 0,-1.69334 0.635,-3.1115 0.65617,-1.41817 1.8415,-2.26484 1.2065,-0.86784 2.83634,-0.86784 z m -0.3175,1.39701 q -0.635,-0.0212 -1.12184,0.5715 -0.46566,0.5715 -0.74083,1.54517 -0.254,0.97366 -0.254,2.13783 0,0.635 0.0635,1.3335 0.0847,0.69851 0.27516,1.31234 0.21167,0.59267 0.52917,0.97367 0.33867,0.381 0.84667,0.381 0.55033,0 0.93134,-0.42333 0.381,-0.42334 0.61383,-1.07951 0.254,-0.67733 0.35983,-1.41817 0.127,-0.74083 0.14817,-1.397 0.0212,-0.5715 -0.0423,-1.24883 -0.0635,-0.67734 -0.23284,-1.29117 -0.16933,-0.61384 -0.508,-0.99484 -0.33866,-0.40216 -0.86783,-0.40216 z m 7.26016,9.41918 q -0.0423,-0.4445 -0.0635,-0.61384 0,-0.1905 0,-0.40216 0,-0.4445 0.0423,-1.05834 0.0635,-0.635 0.14817,-1.35467 0.0847,-0.71967 0.16933,-1.41817 0.10584,-0.762 0.1905,-1.43933 0.10584,-0.6985 0.14817,-1.22767 0.0635,-0.52917 0.0635,-0.78317 0,-0.35983 -0.10583,-0.4445 -0.0847,-0.10583 -0.1905,-0.10583 -0.23284,0 -0.48684,0.35983 -0.254,0.35983 -0.52917,1.31234 l -1.16416,-0.33867 q 0.10583,-0.4445 0.29633,-1.016 0.1905,-0.5715 0.52917,-1.0795 0.33866,-0.52917 0.8255,-0.86784 0.48683,-0.33867 1.18533,-0.33867 0.67734,0 1.22767,0.40217 0.55034,0.40217 0.55034,1.524 0,0.33867 -0.0635,0.80434 -0.0423,0.46567 -0.14817,1.0795 h 0.0212 q 0.5715,-1.60867 1.16416,-2.413 0.61384,-0.82551 1.20651,-1.10067 0.59266,-0.29634 1.10066,-0.29634 0.80434,0 1.29117,0.4445 0.48684,0.42334 0.48684,1.16417 0,0.55034 -0.40217,0.99484 -0.381,0.4445 -1.016,0.4445 -0.46567,0 -0.8255,-0.29634 -0.35984,-0.29633 -0.33867,-0.80433 -0.35983,-0.0423 -0.74083,0.42333 -0.35984,0.4445 -0.69851,1.24884 -0.3175,0.78317 -0.59266,1.75684 -0.254,0.97366 -0.42334,1.98967 -0.14816,1.016 -0.14816,1.92617 0,0.27516 0.0212,0.78316 0.0212,0.48684 0.0423,0.74084 z m 13.86419,0 0.0847,-1.5875 6.85801,-9.65202 q 0.48684,-0.6985 0.8255,-1.16417 0.35984,-0.48683 0.762,-0.93133 l -3.64067,-0.10584 q -1.16417,-0.0423 -1.94734,0.6985 -0.78316,0.71967 -0.889,2.43417 h -1.397 l 0.35983,-4.5085 h 10.73152 l -0.0847,1.5875 -6.58285,9.22868 q -0.46567,0.65617 -0.97367,1.31234 -0.48683,0.635 -0.97367,1.18533 l 3.85234,0.10584 q 1.18534,0.0212 1.96851,-0.67734 0.78317,-0.71967 0.86783,-2.45534 h 1.397 l -0.35983,4.52968 z m 18.03406,-10.81619 q 1.18534,0 2.13784,0.55034 0.97366,0.55033 1.54517,1.60867 0.5715,1.05833 0.5715,2.56117 0,1.67217 -0.65617,3.13267 -0.635,1.43934 -1.82034,2.32834 -1.18533,0.86783 -2.83634,0.86783 -1.41816,0 -2.37067,-0.635 -0.9525,-0.65617 -1.41816,-1.75684 -0.46567,-1.10066 -0.46567,-2.413 0,-1.69334 0.635,-3.1115 0.65617,-1.41817 1.8415,-2.26484 1.2065,-0.86784 2.83634,-0.86784 z m -0.3175,1.39701 q -0.635,-0.0212 -1.12184,0.5715 -0.46566,0.5715 -0.74083,1.54517 -0.254,0.97366 -0.254,2.13783 0,0.635 0.0635,1.3335 0.0847,0.69851 0.27517,1.31234 0.21166,0.59267 0.52916,0.97367 0.33867,0.381 0.84667,0.381 0.55034,0 0.93134,-0.42333 0.381,-0.42334 0.61383,-1.07951 0.254,-0.67733 0.35984,-1.41817 0.127,-0.74083 0.14816,-1.397 0.0212,-0.5715 -0.0423,-1.24883 -0.0635,-0.67734 -0.23283,-1.29117 -0.16934,-0.61384 -0.50801,-0.99484 -0.33866,-0.40216 -0.86783,-0.40216 z m 10.66801,-4.36034 -0.42333,3.19617 h 2.64584 l -0.127,1.4605 -2.64584,0.0423 q -0.0847,0.762 -0.1905,1.65101 -0.10583,0.86783 -0.1905,1.7145 -0.0635,0.8255 -0.127,1.50283 -0.0423,0.65617 -0.0423,1.01601 0,0.27516 0.0635,0.61383 0.0635,0.3175 0.27516,0.55033 0.21167,0.23284 0.67734,0.23284 0.16933,0 0.48683,-0.0847 0.33867,-0.10583 0.71967,-0.381 0.381,-0.27517 0.6985,-0.86783 l 1.0795,0.67733 q -0.71967,1.35467 -1.75683,2.032 -1.03717,0.65617 -2.22251,0.65617 -1.16417,0 -1.75683,-0.48683 -0.5715,-0.48684 -0.762,-1.27 -0.19051,-0.80434 -0.16934,-1.67217 0.0423,-0.71967 0.10584,-1.69334 0.0635,-0.99484 0.16933,-2.07434 0.10583,-1.10067 0.21167,-2.0955 l -1.69334,0.0212 0.1905,-1.54517 q 1.56634,0 2.30717,-0.8255 0.762,-0.82551 1.05834,-2.37067 z m 8.93236,2.96333 q 0.93134,0 1.651,0.27517 0.71967,0.27517 1.12184,0.86784 0.40217,0.59266 0.40217,1.524 0,0.86783 -0.52917,1.48167 -0.508,0.59266 -1.35467,0.97367 -0.8255,0.381 -1.82034,0.635 -0.99483,0.23283 -1.92617,0.35983 0,1.2065 0.27517,1.86267 0.29633,0.635 0.74083,0.889 0.44451,0.23283 0.88901,0.23283 0.35983,0 0.84666,-0.127 0.508,-0.14816 1.01601,-0.59266 0.508,-0.4445 0.889,-1.31234 l 1.18533,0.5715 q -0.59267,1.37584 -1.3335,2.11667 -0.74083,0.74084 -1.54517,1.016 -0.80433,0.27517 -1.62983,0.27517 -1.94734,0.0212 -3.09034,-1.12183 -1.143,-1.14301 -1.143,-3.49251 0,-1.016 0.3175,-2.13784 0.3175,-1.12183 0.9525,-2.0955 0.65616,-0.97367 1.67217,-1.5875 1.016,-0.61384 2.413,-0.61384 z m -0.23283,1.39701 q -0.71967,0 -1.16417,0.508 -0.4445,0.508 -0.67734,1.29117 -0.23283,0.762 -0.3175,1.54516 1.143,-0.21166 1.82034,-0.5715 0.67733,-0.35983 0.97367,-0.8255 0.3175,-0.46566 0.29633,-0.97367 -0.0212,-0.52916 -0.3175,-0.74083 -0.29633,-0.23283 -0.61383,-0.23283 z m 6.20182,9.41918 q -0.0423,-0.4445 -0.0635,-0.61384 0,-0.1905 0,-0.40216 0,-0.4445 0.0423,-1.05834 0.0635,-0.635 0.14816,-1.35467 0.0847,-0.71967 0.16934,-1.41817 0.10583,-0.762 0.1905,-1.43933 0.10583,-0.6985 0.14817,-1.22767 0.0635,-0.52917 0.0635,-0.78317 0,-0.35983 -0.10584,-0.4445 -0.0847,-0.10583 -0.1905,-0.10583 -0.23283,0 -0.48683,0.35983 -0.254,0.35983 -0.52917,1.31234 l -1.16417,-0.33867 q 0.10583,-0.4445 0.29634,-1.016 0.1905,-0.5715 0.52916,-1.0795 0.33867,-0.52917 0.8255,-0.86784 0.48684,-0.33867 1.18534,-0.33867 0.67733,0 1.22767,0.40217 0.55033,0.40217 0.55033,1.524 0,0.33867 -0.0635,0.80434 -0.0423,0.46567 -0.14816,1.0795 h 0.0212 q 0.5715,-1.60867 1.16417,-2.413 0.61383,-0.82551 1.2065,-1.10067 0.59267,-0.29634 1.10067,-0.29634 0.80434,0 1.29117,0.4445 0.48683,0.42334 0.48683,1.16417 0,0.55034 -0.40216,0.99484 -0.381,0.4445 -1.01601,0.4445 -0.46566,0 -0.8255,-0.29634 -0.35983,-0.29633 -0.33866,-0.80433 -0.35984,-0.0423 -0.74084,0.42333 -0.35983,0.4445 -0.6985,1.24884 -0.3175,0.78317 -0.59267,1.75684 -0.254,0.97366 -0.42333,1.98967 -0.14817,1.016 -0.14817,1.92617 0,0.27516 0.0212,0.78316 0.0212,0.48684 0.0423,0.74084 z m 13.54668,-10.81619 q 1.18533,0 2.13783,0.55034 0.97367,0.55033 1.54517,1.60867 0.5715,1.05833 0.5715,2.56117 0,1.67217 -0.65616,3.13267 -0.635,1.43934 -1.82034,2.32834 -1.18533,0.86783 -2.83634,0.86783 -1.41817,0 -2.37067,-0.635 -0.9525,-0.65617 -1.41817,-1.75684 -0.46566,-1.10066 -0.46566,-2.413 0,-1.69334 0.635,-3.1115 0.65617,-1.41817 1.8415,-2.26484 1.2065,-0.86784 2.83634,-0.86784 z m -0.3175,1.39701 q -0.635,-0.0212 -1.12184,0.5715 -0.46566,0.5715 -0.74083,1.54517 -0.254,0.97366 -0.254,2.13783 0,0.635 0.0635,1.3335 0.0847,0.69851 0.27516,1.31234 0.21167,0.59267 0.52917,0.97367 0.33867,0.381 0.84667,0.381 0.55033,0 0.93134,-0.42333 0.381,-0.42334 0.61383,-1.07951 0.254,-0.67733 0.35983,-1.41817 0.127,-0.74083 0.14817,-1.397 0.0212,-0.5715 -0.0423,-1.24883 -0.0635,-0.67734 -0.23284,-1.29117 -0.16933,-0.61384 -0.508,-0.99484 -0.33866,-0.40216 -0.86783,-0.40216 z"
       id="text2"
       aria-label="arXiv Workflow for Zotero" /></g></svg>
